<?xml version="1.0" standalone="no"?>
 <!DOCTYPE svg PUBLIC "-//W3C//DTD SVG 1.1//EN" 
 "http://www.w3.org/Graphics/SVG/1.1/DTD/svg11.dtd"> 
<svg
  xmlns:svg="http://www.w3.org/2000/svg"
  xmlns="http://www.w3.org/2000/svg"
  xmlns:xlink="http://www.w3.org/1999/xlink"
  version="1.1"
  width="247.7262mm" height="95.3262mm" viewBox="0.0000 0.0000 247.7262 95.3262">
<title>SVG Image created as bottom_plate-Edge_Cuts.svg date 2023/06/13 23:24:22 </title>
  <desc>Image generated by PCBNEW </desc>
<g style="fill:#000000; fill-opacity:1.0000;stroke:#000000; stroke-opacity:1.0000;
stroke-linecap:round; stroke-linejoin:round;"
 transform="translate(0 0) scale(1 1)">
</g>
<g style="fill:#000000; fill-opacity:0.0; 
stroke:#000000; stroke-width:0.0000; stroke-opacity:1; 
stroke-linecap:round; stroke-linejoin:round;">
</g>
<g style="fill:#D0D2CD; fill-opacity:0.0; 
stroke:#D0D2CD; stroke-width:0.0000; stroke-opacity:1; 
stroke-linecap:round; stroke-linejoin:round;">
</g>
<g style="fill:#D0D2CD; fill-opacity:0.0; 
stroke:#D0D2CD; stroke-width:0.1000; stroke-opacity:1; 
stroke-linecap:round; stroke-linejoin:round;">
<path d="M55.2000 61.9625
L21.1000 61.9625
" />
<path d="M19.1000 59.9625
L19.1000 59.2000
" />
<path d="M2.0500 0.0500
L17.1000 0.0500
" />
<path d="M190.5500 63.9625
L190.5500 79.0125
" />
<path d="M19.1000 59.2000 A2.0000 2.0000 0.0 0 0 17.1000 57.2000" />
<path d="M0.0500 55.2000
L0.0500 2.0500
" />
<path d="M95.3000 11.5750 A2.0000 2.0000 0.0 0 0 93.3000 9.5750" />
<path d="M76.2500 83.7750 A2.0000 2.0000 0.0 0 0 78.2500 85.7750" />
<path d="M78.2500 9.5750
L93.3000 9.5750
" />
<path d="M152.4500 87.7750
L152.4500 93.3000
" />
<path d="M76.2500 83.0125 A2.0000 2.0000 0.0 0 0 74.2500 81.0125" />
<path d="M173.5000 81.0125 A2.0000 2.0000 0.0 0 0 171.5000 83.0125" />
<path d="M226.6500 61.9625
L192.5500 61.9625
" />
<path d="M171.5000 7.5750
L171.5000 6.8125
" />
<path d="M95.3000 17.1000 A2.0000 2.0000 0.0 0 0 97.3000 19.1000" />
<path d="M226.6500 4.8125 A2.0000 2.0000 0.0 0 0 228.6500 2.8125" />
<path d="M245.7000 57.2000 A2.0000 2.0000 0.0 0 0 247.7000 55.2000" />
<path d="M21.1000 4.8125
L74.2500 4.8125
" />
<path d="M247.7000 2.0500
L247.7000 55.2000
" />
<path d="M150.4500 19.1000 A2.0000 2.0000 0.0 0 0 152.4500 17.1000" />
<path d="M19.1000 2.0500
L19.1000 2.8125
" />
<path d="M17.1000 57.2000
L2.0500 57.2000
" />
<path d="M226.6500 61.9625 A2.0000 2.0000 0.0 0 0 228.6500 59.9625" />
<path d="M247.7000 2.0500 A2.0000 2.0000 0.0 0 0 245.7000 0.0500" />
<path d="M19.1000 2.0500 A2.0000 2.0000 0.0 0 0 17.1000 0.0500" />
<path d="M19.1000 59.9625 A2.0000 2.0000 0.0 0 0 21.1000 61.9625" />
<path d="M76.2500 83.7750
L76.2500 83.0125
" />
<path d="M188.5500 81.0125
L173.5000 81.0125
" />
<path d="M192.5500 61.9625 A2.0000 2.0000 0.0 0 0 190.5500 63.9625" />
<path d="M19.1000 2.8125 A2.0000 2.0000 0.0 0 0 21.1000 4.8125" />
<path d="M57.2000 79.0125
L57.2000 63.9625
" />
<path d="M173.5000 4.8125
L226.6500 4.8125
" />
<path d="M173.5000 4.8125 A2.0000 2.0000 0.0 0 0 171.5000 6.8125" />
<path d="M2.0500 0.0500 A2.0000 2.0000 0.0 0 0 0.0500 2.0500" />
<path d="M169.5000 9.5750 A2.0000 2.0000 0.0 0 0 171.5000 7.5750" />
<path d="M76.2500 6.8125
L76.2500 7.5750
" />
<path d="M169.5000 85.7750 A2.0000 2.0000 0.0 0 0 171.5000 83.7750" />
<path d="M74.2500 81.0125
L59.2000 81.0125
" />
<path d="M154.4500 9.5750 A2.0000 2.0000 0.0 0 0 152.4500 11.5750" />
<path d="M57.2000 79.0125 A2.0000 2.0000 0.0 0 0 59.2000 81.0125" />
<path d="M154.4500 9.5750
L169.5000 9.5750
" />
<path d="M230.6500 57.2000 A2.0000 2.0000 0.0 0 0 228.6500 59.2000" />
<path d="M230.6500 0.0500 A2.0000 2.0000 0.0 0 0 228.6500 2.0500" />
<path d="M169.5000 85.7750
L154.4500 85.7750
" />
<path d="M95.3000 11.5750
L95.3000 17.1000
" />
<path d="M76.2500 6.8125 A2.0000 2.0000 0.0 0 0 74.2500 4.8125" />
<path d="M0.0500 55.2000 A2.0000 2.0000 0.0 0 0 2.0500 57.2000" />
<path d="M95.3000 93.3000 A2.0000 2.0000 0.0 0 0 97.3000 95.3000" />
<path d="M150.4500 95.3000
L97.3000 95.3000
" />
<path d="M228.6500 59.2000
L228.6500 59.9625
" />
<path d="M171.5000 83.0125
L171.5000 83.7750
" />
<path d="M93.3000 85.7750
L78.2500 85.7750
" />
<path d="M152.4500 17.1000
L152.4500 11.5750
" />
<path d="M95.3000 93.3000
L95.3000 87.7750
" />
<path d="M57.2000 63.9625 A2.0000 2.0000 0.0 0 0 55.2000 61.9625" />
<path d="M76.2500 7.5750 A2.0000 2.0000 0.0 0 0 78.2500 9.5750" />
<path d="M230.6500 0.0500
L245.7000 0.0500
" />
<path d="M95.3000 87.7750 A2.0000 2.0000 0.0 0 0 93.3000 85.7750" />
<path d="M150.4500 95.3000 A2.0000 2.0000 0.0 0 0 152.4500 93.3000" />
<path d="M97.3000 19.1000
L150.4500 19.1000
" />
<path d="M228.6500 2.8125
L228.6500 2.0500
" />
<path d="M154.4500 85.7750 A2.0000 2.0000 0.0 0 0 152.4500 87.7750" />
<path d="M188.5500 81.0125 A2.0000 2.0000 0.0 0 0 190.5500 79.0125" />
<path d="M245.7000 57.2000
L230.6500 57.2000
" />
<g >
</g>
<g >
</g>
<g >
</g>
<g >
</g>
<g >
</g>
<g >
</g>
<g >
</g>
<g >
</g>
<g >
</g>
<g >
</g>
<g >
</g>
<g >
</g>
<g >
</g>
</g> 
</svg>
