<?xml version="1.0" encoding="utf-8"?>
<!-- Generator: Adobe Illustrator 28.1.0, SVG Export Plug-In . SVG Version: 6.00 Build 0)  -->
<svg version="1.1" id="レイヤー_1" xmlns:svg="http://www.w3.org/2000/svg"
	 xmlns="http://www.w3.org/2000/svg" xmlns:xlink="http://www.w3.org/1999/xlink" x="0px" y="0px" viewBox="0 0 702.2 270.2"
	 style="enable-background:new 0 0 702.2 270.2;" xml:space="preserve">
<style type="text/css">
	.st0{fill-opacity:0;stroke:#000000;stroke-width:0.2835;stroke-linecap:round;stroke-linejoin:round;stroke-miterlimit:11.3386;}
</style>
<circle class="st0" cx="648.1" cy="108.1" r="3.1"/>
<circle class="st0" cx="648.1" cy="54.1" r="3.1"/>
<circle class="st0" cx="540.1" cy="121.6" r="3.1"/>
<circle class="st0" cx="54.1" cy="108.1" r="3.1"/>
<circle class="st0" cx="54.1" cy="54.1" r="3.1"/>
<circle class="st0" cx="162.1" cy="121.6" r="3.1"/>
<circle class="st0" cx="432.1" cy="219.5" r="3.1"/>
<circle class="st0" cx="270.1" cy="219.5" r="3.1"/>
<circle class="st0" cx="270.1" cy="60.9" r="3.1"/>
<circle class="st0" cx="432.1" cy="60.9" r="3.1"/>
<path class="st0" d="M216.1,229.6v13.5h54v27h162v-27h54v-13.5h54v-54h108v-13.5h54V0.1h-54v13.5h-162v13.5h-54v27h-162v-27h-54
	V13.6h-162V0.1h-54v162h54v13.5h108v54H216.1z"/>
</svg>
